# xmcd CD database file
#
# Track frame offsets:
#	150
#	20720
#	45218
#	69383
#	101322
#	125626
#	142379
#	163200
#	186056
#	209441
#	231600
#	253285
#	288874
#
# Disc length: 4172 seconds
#
# Revision: 0
# Processed by: cddbd v1.5.2PL0 Copyright (c) Steve Scherf et al.
# Submitted via: CDex 1.51
#
DISCID=c9104a0d
DTITLE=Junior Wells and Buddy Guy - Live In Japan
DYEAR=1975
DGENRE=Blues
TTITLE0=Let Me Love You Baby
TTITLE1=How Blue Can You Get
TTITLE2=High Heel Sneakers
TTITLE3=First Time I Met The Blues
TTITLE4=Stone Crazy
TTITLE5=Fever
TTITLE6=Come On Home To Me Baby
TTITLE7=Little By Little
TTITLE8=Don't Go No Further
TTITLE9=Snatch It Back Amd Hold It
TTITLE10=Help Me Darling
TTITLE11=Hoochie Coochie Man and Someday
TTITLE12=Waterman Blues
EXTD=YEAR: 1975
EXTT0=
EXTT1=
EXTT2=
EXTT3=
EXTT4=
EXTT5=
EXTT6=
EXTT7=
EXTT8=
EXTT9=
EXTT10=
EXTT11=
EXTT12=
PLAYORDER=
